<svg fill="#FFF" xmlns="http://www.w3.org/2000/svg" viewBox="0 0 48 48" width="40" height="40"><circle cx="24" cy="24" r="18.5" fill="none" stroke="#FFF" stroke-miterlimit="10" stroke-width="3"/><path d="M17.784 34.156c-1.297 0-1.801-.526-2.502-1.415-.692-.889-1.437-1.488-2.331-1.736-.482-.051-.806.316-.386.641 1.419.966 1.516 2.548 2.085 3.583.518.932 1.579 1.771 2.779 1.771H21v-2.844h-3.216z"/><path d="M24.08 30.216h-.16a4.92 4.92 0 00-4.92 4.92v7.806h10v-7.806a4.92 4.92 0 00-4.92-4.92z"/><ellipse cx="24" cy="23" rx="10" ry="8"/><path d="M32.2 13.077c-3.28 0-4.92 3.28-4.92 3.28l4.746 3.451s1.912-3.949.174-6.731zm-16.4 0c3.28 0 4.92 3.28 4.92 3.28l-4.746 2.631s-1.912-3.129-.174-5.911z"/></svg>