<svg fill="#FFF" xmlns="http://www.w3.org/2000/svg" viewBox="0 0 50 50" width="40" height="40"><path fill="none" stroke="#FFF" stroke-linecap="round" stroke-linejoin="round" stroke-miterlimit="10" stroke-width="2" d="M49 11.096a19.774 19.774 0 01-5.658 1.552A9.884 9.884 0 0047.674 7.2a19.757 19.757 0 01-6.255 2.388 9.82 9.82 0 00-7.186-3.11c-5.44 0-9.849 4.409-9.849 9.847 0 .771.088 1.522.257 2.244-8.184-.412-15.441-4.332-20.299-10.29a9.817 9.817 0 00-1.332 4.953 9.84 9.84 0 004.38 8.197 9.796 9.796 0 01-4.46-1.233v.125c0 4.773 3.394 8.748 7.896 9.657a9.75 9.75 0 01-2.592.346 9.79 9.79 0 01-1.856-.178c1.257 3.909 4.892 6.761 9.201 6.84a19.748 19.748 0 01-12.23 4.213c-.797 0-1.579-.044-2.348-.137a27.86 27.86 0 0015.095 4.425c18.114 0 28.022-15.007 28.022-28.016 0-.429-.011-.856-.029-1.275a20.013 20.013 0 004.911-5.1z"/></svg>